PathFileType	4	(X/Y/Z)	OpenSim_Sub08_CSStiffKnee_Accel.trc
DataRate	CameraRate	NumFrames	NumMarkers	Units	OrigDataRate	OrigDataStartFrame	OrigNumFrames
100	100	17	8	m	100	3302	5282
Frame#	Time	torso_imu_offset_imu	pelvis_imu_offset_imu	tibia_r_imu_offset_imu	femur_r_imu_offset_imu	tibia_l_imu_offset_imu	femur_l_imu_offset_imu	toes_r_imu_offset_imu	toes_l_imu_offset_imu
				X1	Y1	Z1	X2	Y2	Z2	X3	Y3	Z3	X4	Y4	Z4	X5	Y5	Z5	X6	Y6	Z6	X7	Y7	Z7	X8		Y8	Z8	

3302	33.01000000	9.77159539	-0.69552604	5.92647835	10.56383868	-0.86509830	4.96793639	9.90774779	1.09291532	-1.19851152	9.46606723	0.06603325	1.16227433	2.48669900	-6.26917620	-0.24916915	11.39504026	1.49645625	1.09441174	5.41023674	-2.31213015	8.39917323	-5.41807628	1.48982642	12.16263163
3303	33.02000000	9.58263233	-0.34161435	5.87246166	10.36302192	-1.91547536	4.70721164	10.40515608	1.40345679	-0.85162957	9.73534957	-0.00859421	1.04139365	2.84568684	-4.27909952	1.66873950	11.02039548	1.69373224	1.19058818	5.41962012	-2.02715158	8.49162415	-5.17560595	-3.39561912	9.54832584
3304	33.03000000	9.38712415	-0.33798045	5.90319690	9.79513113	-2.35571314	4.40024679	10.16009353	1.49779115	-0.31043159	9.77757649	0.02147170	0.86082922	2.70818837	-4.08630559	3.31409614	10.84529571	2.00293679	1.41686253	5.12199863	-1.75958102	8.49355892	-5.26485530	-1.43612444	10.17314787
3305	33.04000000	9.27738644	-0.55380898	5.93960126	9.02744169	-1.97078670	4.17922883	9.81144595	1.25760624	0.02851205	9.69494784	0.25459326	0.81340123	2.41116331	-5.27652725	3.64705108	10.09536432	2.20854024	1.74602633	4.93073222	-1.61511271	8.64750505	-4.68707262	2.72286639	11.18843293
3306	33.05000000	9.18591183	-0.75178213	5.87751770	8.28585986	-0.94262880	4.00000325	9.85939669	0.65430902	-0.14005374	9.52695789	0.45280049	0.83409386	2.22660303	-6.67372604	3.43947730	10.56200290	2.79454562	1.93823278	5.00612185	-1.62842702	8.58632537	-2.82209348	6.04968988	12.55869191
3307	33.06000000	8.94639786	-0.80514114	5.77507393	7.86313350	0.24499928	3.84573691	9.92815092	0.13397932	-0.42746285	9.38975520	0.45979104	0.88881347	1.87710069	-7.08913036	3.87282772	10.56385685	2.95179503	1.96870867	4.99956527	-1.76763746	8.41419222	-0.19514572	6.52540597	14.01434418
3308	33.07000000	8.48659186	-0.77991118	5.79391171	7.74125853	1.31493080	3.68396524	9.80169839	-0.42331891	-0.78608448	9.29978929	0.13809548	0.69897439	1.39166470	-6.62329092	4.43426568	9.67623495	2.85848700	1.98933292	4.77949407	-2.18318988	8.32561313	2.05372059	4.50098674	14.74684786
3309	33.08000000	8.05386595	-0.67304276	5.88724561	7.76843550	2.12552976	3.57015401	9.65391740	-1.03936657	-1.05402986	9.13055714	-0.64389584	0.38770272	1.32435890	-5.79492847	4.38011480	9.01939459	2.90410095	1.83689939	4.92929856	-2.44247563	8.39137725	3.59192098	1.55585856	14.70073437
3310	33.09000000	7.81766985	-0.57640352	5.73098872	7.87270284	2.51585379	3.50844448	9.52750789	-1.59362320	-0.94864806	8.98839865	-1.46482826	0.08048549	2.08801645	-4.81107531	3.76187388	8.05283556	2.56942943	1.44236540	5.01230631	-2.35864946	8.21374338	3.95661626	-0.66433984	13.94640466
3311	33.10000000	7.78064514	-0.49768841	5.67994563	8.06536366	2.41775522	3.48188158	9.48885017	-1.79566062	-0.87261788	8.93992639	-1.97893736	-0.11793294	3.46538142	-3.86660365	3.11906668	7.44905180	2.32819996	0.92158090	5.05556796	-2.18606703	8.08807860	3.77827136	-1.73138618	13.13156538
3312	33.11000000	7.93961959	-0.38922932	5.77295325	8.31902479	1.98889696	3.48612293	9.58893692	-1.45731232	-1.01951479	8.98973856	-2.19110444	-0.13160660	4.96175724	-2.29064147	3.92949551	7.15900988	2.12488034	0.48312751	5.12290160	-2.03965430	8.37292759	4.67383678	-2.54719993	12.37644758
3313	33.12000000	8.15278414	-0.31267241	5.67700663	8.51693143	1.47978058	3.43445806	9.75424489	-0.82430485	-0.83511070	9.10215626	-2.04594190	-0.07830965	6.40736536	-0.68702949	4.40225292	7.20733457	1.86253766	0.23543920	5.27075665	-2.10521813	8.31107092	6.43914826	-2.92484110	12.30779304
3314	33.13000000	8.22106759	-0.23286165	5.72609549	8.72394748	1.06696311	3.33599709	9.73397603	-0.30519828	-0.61795254	9.21720891	-1.68005261	0.09642220	7.49549981	-2.00875009	0.95018095	7.43443197	1.45126662	0.26251107	4.82597305	-2.21037230	8.28266373	8.38187495	-2.73703929	13.49258664
3315	33.14000000	8.24623687	-0.25847550	5.78547718	8.89791239	0.87624973	3.23405820	9.63724149	-0.03270341	-0.52212315	9.42556360	-1.21527481	0.30626349	7.87154127	-6.92132715	-3.35880161	7.49165919	0.99777821	0.57932052	4.97438476	-2.14792481	8.23336853	9.81290783	-1.60080410	15.14287279
3316	33.15000000	8.33865555	-0.42687247	5.59073267	8.97971722	0.97713210	3.07288061	9.63991839	-0.20751222	-0.47303086	9.58510556	-0.83492117	0.30830623	8.57440548	-12.12195457	-4.73665728	7.32972114	0.42741228	0.99279647	5.24580141	-1.99807259	8.22660941	11.32904625	-0.45332894	16.75438597
3317	33.16000000	8.45630255	-0.53417050	5.47862739	9.03430435	1.31728014	2.88952638	9.75202722	-0.37931822	-0.60047879	9.59123502	-0.68077052	0.26269884	9.69536795	-12.00617157	-2.51920090	6.98722600	0.25826266	1.18643897	4.94974059	-2.04279682	8.28760721	15.13926719	-1.46210327	17.54911758
3318	33.17000000	8.75707727	-0.59477615	5.54309054	8.97142363	1.63926935	2.87560977	9.89020036	-0.26812465	-0.72437774	9.59234599	-0.78604638	0.22491340	9.01891435	-6.91562639	1.80484051	6.77249549	0.63916434	1.26491492	4.90912198	-2.03524239	8.53310923	18.63593475	-4.18826599	16.40409645
